<svg width="401" height="79" viewBox="0 0 401 79" fill="none" xmlns="http://www.w3.org/2000/svg">
<path d="M58.44 23.3233C58.44 19.1881 55.009 15.8359 50.7765 15.8359H9.66352C5.43101 15.8359 2 19.1881 2 23.3233" stroke="url(#paint0_angular_2_815)" stroke-width="3.5" stroke-miterlimit="10"/>
<path d="M4 61.1953C4 65.1965 7.25233 68.4407 11.2634 68.4407H50.2295C54.2406 68.4407 57.4929 65.1965 57.4929 61.1953" stroke="url(#paint1_angular_2_815)" stroke-width="3.5" stroke-miterlimit="10"/>
<path d="M18.5782 26.5H15V57.2272H18.5782V26.5Z" fill="url(#paint2_angular_2_815)"/>
<path d="M25.2325 26.5H21.6543V57.2272H25.2325V26.5Z" fill="url(#paint3_angular_2_815)"/>
<path d="M32.0099 26.5H28.4316V57.2272H32.0099V26.5Z" fill="url(#paint4_angular_2_815)"/>
<path d="M38.5997 26.5H35.0215V57.2272H38.5997V26.5Z" fill="url(#paint5_angular_2_815)"/>
<path d="M45.3497 26.5H41.7715V57.2272H45.3497V26.5Z" fill="url(#paint6_angular_2_815)"/>
<path d="M18.5782 73.0918H15V78.5H18.5782V73.0918Z" fill="url(#paint7_angular_2_815)"/>
<path d="M25.2325 73.0918H21.6543V78.5H25.2325V73.0918Z" fill="url(#paint8_angular_2_815)"/>
<path d="M32.0099 73.0918H28.4316V78.5H32.0099V73.0918Z" fill="url(#paint9_angular_2_815)"/>
<path d="M38.6017 73.0918H35.0234V78.5H38.6017V73.0918Z" fill="url(#paint10_angular_2_815)"/>
<path d="M45.3497 73.0918H41.7715V78.5H45.3497V73.0918Z" fill="url(#paint11_angular_2_815)"/>
<path d="M25.2306 0.5H21.6523V5.90822H25.2306V0.5Z" fill="url(#paint12_angular_2_815)"/>
<path d="M32.0118 0.5H28.4336V5.90822H32.0118V0.5Z" fill="url(#paint13_angular_2_815)"/>
<path d="M38.6017 0.5H35.0234V5.90822H38.6017V0.5Z" fill="url(#paint14_angular_2_815)"/>
<path d="M48.4863 24.0694V20.5L12.9999 20.5V24.0694L48.4863 24.0694Z" fill="url(#paint15_angular_2_815)"/>
<path d="M48 63.8702V60.3008L12.5136 60.3008V63.8702L48 63.8702Z" fill="url(#paint16_angular_2_815)"/>
<path d="M48 11.3438V7.77441L12.5136 7.77441V11.3438L48 11.3438Z" fill="url(#paint17_angular_2_815)"/>
<path d="M116.654 59.22C116.871 59.22 116.979 59.35 116.979 59.61C116.979 59.87 116.871 60 116.654 60C115.831 60 114.509 59.9567 112.689 59.87C110.869 59.7833 109.548 59.74 108.724 59.74C107.641 59.74 106.363 59.7833 104.889 59.87C103.416 59.9567 102.268 60 101.444 60C101.271 60 101.184 59.87 101.184 59.61C101.184 59.35 101.271 59.22 101.444 59.22C102.701 59.22 103.611 59.09 104.174 58.83C104.781 58.5267 105.084 58.05 105.084 57.4C105.084 56.75 104.716 55.645 103.979 54.085L99.0395 44.075H83.3095L80.1895 51.095C79.6261 52.395 79.3445 53.565 79.3445 54.605C79.3445 56.1217 79.8861 57.27 80.9695 58.05C82.0528 58.83 83.5695 59.22 85.5195 59.22C85.7361 59.22 85.8445 59.35 85.8445 59.61C85.8445 59.87 85.7361 60 85.5195 60C84.7395 60 83.6128 59.9567 82.1395 59.87C80.4928 59.7833 79.0628 59.74 77.8495 59.74C76.6795 59.74 75.3145 59.7833 73.7545 59.87C72.3678 59.9567 71.2195 60 70.3095 60C70.0928 60 69.9845 59.87 69.9845 59.61C69.9845 59.35 70.0928 59.22 70.3095 59.22C71.5228 59.22 72.5411 58.9817 73.3645 58.505C74.1878 58.0283 74.9895 57.1833 75.7695 55.97C76.5495 54.7133 77.4811 52.8717 78.5645 50.445L92.5395 18.985C92.6261 18.855 92.8211 18.79 93.1245 18.79C93.4278 18.79 93.6011 18.855 93.6445 18.985L109.569 51.095C111.086 54.215 112.343 56.36 113.339 57.53C114.379 58.6567 115.484 59.22 116.654 59.22ZM84.0245 42.45H98.2595L90.7845 27.305L84.0245 42.45ZM137.45 55.84C137.58 55.84 137.689 55.9267 137.775 56.1C137.905 56.2733 137.905 56.4033 137.775 56.49C136.172 58.0067 134.655 59.1117 133.225 59.805C131.795 60.455 130.279 60.78 128.675 60.78C126.812 60.78 125.23 60.3467 123.93 59.48C122.674 58.57 122.045 57.075 122.045 54.995V40.305C122.045 38.875 121.807 37.9217 121.33 37.445C120.897 36.9683 120.03 36.73 118.73 36.73C118.687 36.73 118.622 36.6867 118.535 36.6C118.492 36.47 118.47 36.34 118.47 36.21C118.47 36.08 118.492 35.9717 118.535 35.885C118.622 35.755 118.687 35.69 118.73 35.69C122.804 35.5167 125.36 33.7617 126.4 30.425C126.487 30.2517 126.66 30.165 126.92 30.165C127.224 30.165 127.375 30.2517 127.375 30.425V35.56C129.412 35.5167 132.294 35.3 136.02 34.91C136.107 34.91 136.194 35.0833 136.28 35.43C136.41 35.7333 136.475 36.08 136.475 36.47C136.475 36.86 136.389 37.25 136.215 37.64C136.085 38.03 135.934 38.2033 135.76 38.16C133.334 37.5967 130.539 37.25 127.375 37.12V52.85C127.375 54.54 127.787 55.7967 128.61 56.62C129.477 57.4 130.669 57.79 132.185 57.79C134.005 57.79 135.717 57.1617 137.32 55.905L137.45 55.84ZM159.35 55.84C159.48 55.84 159.588 55.9267 159.675 56.1C159.805 56.2733 159.805 56.4033 159.675 56.49C158.071 58.0067 156.555 59.1117 155.125 59.805C153.695 60.455 152.178 60.78 150.575 60.78C148.711 60.78 147.13 60.3467 145.83 59.48C144.573 58.57 143.945 57.075 143.945 54.995V40.305C143.945 38.875 143.706 37.9217 143.23 37.445C142.796 36.9683 141.93 36.73 140.63 36.73C140.586 36.73 140.521 36.6867 140.435 36.6C140.391 36.47 140.37 36.34 140.37 36.21C140.37 36.08 140.391 35.9717 140.435 35.885C140.521 35.755 140.586 35.69 140.63 35.69C144.703 35.5167 147.26 33.7617 148.3 30.425C148.386 30.2517 148.56 30.165 148.82 30.165C149.123 30.165 149.275 30.2517 149.275 30.425V35.56C151.311 35.5167 154.193 35.3 157.92 34.91C158.006 34.91 158.093 35.0833 158.18 35.43C158.31 35.7333 158.375 36.08 158.375 36.47C158.375 36.86 158.288 37.25 158.115 37.64C157.985 38.03 157.833 38.2033 157.66 38.16C155.233 37.5967 152.438 37.25 149.275 37.12V52.85C149.275 54.54 149.686 55.7967 150.51 56.62C151.376 57.4 152.568 57.79 154.085 57.79C155.905 57.79 157.616 57.1617 159.22 55.905L159.35 55.84ZM175.724 60.845C173.124 60.845 170.828 60.2383 168.834 59.025C166.841 57.7683 165.303 56.1 164.219 54.02C163.136 51.8967 162.594 49.6 162.594 47.13C162.594 44.3133 163.288 41.93 164.674 39.98C166.104 37.9867 167.903 36.5133 170.069 35.56C172.279 34.5633 174.533 34.065 176.829 34.065C179.473 34.065 181.769 34.6933 183.719 35.95C185.713 37.2067 187.229 38.875 188.269 40.955C189.309 42.9917 189.829 45.18 189.829 47.52C189.829 50.12 189.179 52.4383 187.879 54.475C186.623 56.5117 184.911 58.0933 182.744 59.22C180.578 60.3033 178.238 60.845 175.724 60.845ZM177.674 59.545C179.581 59.545 181.033 58.7 182.029 57.01C183.069 55.32 183.589 52.85 183.589 49.6C183.589 46.6967 183.178 44.1617 182.354 41.995C181.574 39.8283 180.491 38.1817 179.104 37.055C177.761 35.9283 176.288 35.365 174.684 35.365C172.734 35.365 171.261 36.1667 170.264 37.77C169.268 39.3733 168.769 41.735 168.769 44.855C168.769 47.6717 169.138 50.2067 169.874 52.46C170.654 54.67 171.716 56.4033 173.059 57.66C174.446 58.9167 175.984 59.545 177.674 59.545ZM210.976 34.26C211.972 34.26 212.926 34.585 213.836 35.235C214.746 35.885 215.201 36.665 215.201 37.575C215.201 38.3983 214.941 39.07 214.421 39.59C213.944 40.11 213.272 40.37 212.406 40.37C211.842 40.37 211.366 40.2617 210.976 40.045C210.629 39.785 210.261 39.4383 209.871 39.005C209.481 38.615 209.134 38.3333 208.831 38.16C208.527 37.9433 208.159 37.835 207.726 37.835C207.249 37.835 206.729 38.03 206.166 38.42C205.646 38.7667 204.822 39.525 203.696 40.695V54.735C203.696 55.9483 203.869 56.88 204.216 57.53C204.562 58.1367 205.147 58.57 205.971 58.83C206.794 59.09 208.007 59.22 209.611 59.22C209.784 59.22 209.871 59.35 209.871 59.61C209.871 59.87 209.784 60 209.611 60C208.181 60 207.032 59.9783 206.166 59.935L201.031 59.87L197.261 59.935C196.654 59.9783 195.809 60 194.726 60C194.596 60 194.531 59.87 194.531 59.61C194.531 59.35 194.596 59.22 194.726 59.22C196.199 59.22 197.174 58.9167 197.651 58.31C198.127 57.7033 198.366 56.5117 198.366 54.735V42.32C198.366 40.9333 198.192 39.915 197.846 39.265C197.542 38.615 197.022 38.29 196.286 38.29C195.636 38.29 194.552 38.615 193.036 39.265H192.971C192.797 39.265 192.667 39.1567 192.581 38.94C192.494 38.7233 192.516 38.5933 192.646 38.55L201.161 34.39C201.421 34.3033 201.572 34.26 201.616 34.26C202.049 34.26 202.482 34.7367 202.916 35.69C203.349 36.6 203.609 37.8133 203.696 39.33C205.386 37.4233 206.794 36.1017 207.921 35.365C209.047 34.6283 210.066 34.26 210.976 34.26ZM249.132 59.22C249.262 59.22 249.327 59.35 249.327 59.61C249.327 59.87 249.262 60 249.132 60C248.049 60 247.204 59.9783 246.597 59.935L242.827 59.87L239.122 59.935C238.472 59.9783 237.605 60 236.522 60C236.392 60 236.327 59.87 236.327 59.61C236.327 59.35 236.392 59.22 236.522 59.22C237.995 59.22 238.97 58.9167 239.447 58.31C239.924 57.7033 240.162 56.5117 240.162 54.735V44.985C240.162 42.5583 239.707 40.7817 238.797 39.655C237.93 38.485 236.544 37.9 234.637 37.9C233.51 37.9 232.362 38.16 231.192 38.68C230.022 39.2 228.96 39.8933 228.007 40.76V54.735C228.007 56.5117 228.245 57.7033 228.722 58.31C229.199 58.9167 230.174 59.22 231.647 59.22C231.777 59.22 231.842 59.35 231.842 59.61C231.842 59.87 231.777 60 231.647 60C230.564 60 229.719 59.9783 229.112 59.935L225.342 59.87L221.572 59.935C220.965 59.9783 220.12 60 219.037 60C218.907 60 218.842 59.87 218.842 59.61C218.842 59.35 218.907 59.22 219.037 59.22C220.51 59.22 221.485 58.9167 221.962 58.31C222.439 57.7033 222.677 56.5117 222.677 54.735V42.32C222.677 40.9333 222.504 39.915 222.157 39.265C221.854 38.615 221.334 38.29 220.597 38.29C219.947 38.29 218.864 38.615 217.347 39.265H217.282C217.109 39.265 216.979 39.1567 216.892 38.94C216.805 38.7233 216.827 38.5933 216.957 38.55L225.472 34.39C225.732 34.3033 225.884 34.26 225.927 34.26C226.36 34.26 226.794 34.7583 227.227 35.755C227.704 36.7083 227.964 37.965 228.007 39.525C231.04 35.9283 234.334 34.13 237.887 34.13C240.27 34.13 242.134 34.8667 243.477 36.34C244.82 37.77 245.492 39.72 245.492 42.19V54.735C245.492 56.5117 245.73 57.7033 246.207 58.31C246.684 58.9167 247.659 59.22 249.132 59.22ZM275.031 55.905C275.117 55.905 275.204 55.9917 275.291 56.165C275.421 56.3383 275.442 56.4683 275.356 56.555C273.752 58.0283 272.149 59.1117 270.546 59.805C268.942 60.455 267.209 60.78 265.346 60.78C262.702 60.78 260.406 60.195 258.456 59.025C256.549 57.855 255.076 56.3167 254.036 54.41C253.039 52.5033 252.541 50.445 252.541 48.235C252.541 45.6783 253.169 43.3383 254.426 41.215C255.682 39.0917 257.394 37.4233 259.561 36.21C261.771 34.9533 264.219 34.325 266.906 34.325C269.506 34.325 271.521 34.9533 272.951 36.21C274.381 37.4667 275.096 39.33 275.096 41.8C275.096 43.0567 274.836 43.685 274.316 43.685L258.456 43.75C258.412 44.14 258.391 44.725 258.391 45.505C258.391 49.3183 259.257 52.3517 260.991 54.605C262.767 56.815 265.281 57.92 268.531 57.92C269.744 57.92 270.762 57.79 271.586 57.53C272.409 57.2267 273.514 56.7067 274.901 55.97L275.031 55.905ZM264.566 35.625C262.962 35.625 261.641 36.2533 260.601 37.51C259.604 38.7233 258.932 40.4133 258.586 42.58L268.986 42.385C268.899 37.8783 267.426 35.625 264.566 35.625ZM305.843 34.91C305.93 34.91 305.973 35.04 305.973 35.3C305.973 35.56 305.93 35.69 305.843 35.69C304.543 35.69 303.416 36.21 302.463 37.25C301.553 38.29 300.708 39.8717 299.928 41.995L292.453 61.82C290.893 65.98 289.398 69.2517 287.968 71.635C286.538 74.0183 285.086 75.7083 283.613 76.705C282.14 77.745 280.515 78.265 278.738 78.265C277.525 78.265 276.593 78.005 275.943 77.485C275.25 77.0083 274.903 76.2717 274.903 75.275C274.903 74.4083 275.185 73.7367 275.748 73.26C276.268 72.8267 276.918 72.61 277.698 72.61C278.218 72.61 278.651 72.675 278.998 72.805C279.388 72.9783 279.778 73.195 280.168 73.455C280.601 73.715 280.97 73.91 281.273 74.04C281.62 74.17 282.031 74.235 282.508 74.235C283.505 74.235 284.415 73.8233 285.238 73C286.105 72.22 286.993 70.8983 287.903 69.035C288.856 67.1717 289.983 64.5283 291.283 61.105L281.013 40.305C280.06 38.4417 279.301 37.2067 278.738 36.6C278.218 35.9933 277.568 35.69 276.788 35.69C276.658 35.69 276.593 35.56 276.593 35.3C276.593 35.04 276.658 34.91 276.788 34.91C277.915 34.91 278.781 34.9317 279.388 34.975L281.923 35.04L286.343 34.975C286.993 34.9317 287.881 34.91 289.008 34.91C289.138 34.91 289.203 35.04 289.203 35.3C289.203 35.56 289.138 35.69 289.008 35.69C287.838 35.69 286.971 35.7983 286.408 36.015C285.888 36.1883 285.628 36.535 285.628 37.055C285.628 37.445 285.736 37.835 285.953 38.225L293.883 54.605L298.238 41.995C298.628 40.8683 298.823 39.915 298.823 39.135C298.823 36.8383 297.371 35.69 294.468 35.69C294.381 35.69 294.338 35.56 294.338 35.3C294.338 35.04 294.381 34.91 294.468 34.91C295.638 34.91 296.526 34.9317 297.133 34.975L301.033 35.04L303.568 34.975C304.045 34.9317 304.803 34.91 305.843 34.91ZM312.583 38.29C312.583 39.6333 313.038 40.76 313.948 41.67C314.901 42.58 316.266 43.5333 318.043 44.53C319.603 45.3967 320.794 46.1117 321.618 46.675C322.484 47.2383 323.221 47.9967 323.828 48.95C324.478 49.9033 324.803 51.0517 324.803 52.395C324.803 53.8683 324.434 55.2333 323.698 56.49C322.961 57.7467 321.856 58.765 320.383 59.545C318.953 60.325 317.241 60.715 315.248 60.715C312.864 60.715 310.676 60.1083 308.683 58.895C308.423 58.635 308.293 58.375 308.293 58.115L308.163 52.135C308.163 52.005 308.271 51.94 308.488 51.94C308.748 51.8967 308.899 51.9183 308.943 52.005C309.679 54.1717 310.784 55.9483 312.258 57.335C313.774 58.7217 315.378 59.415 317.068 59.415C318.151 59.415 318.996 59.1333 319.603 58.57C320.209 58.0067 320.513 57.1617 320.513 56.035C320.513 54.3883 320.036 53.0883 319.083 52.135C318.129 51.1383 316.743 50.1633 314.923 49.21C313.449 48.43 312.301 47.78 311.478 47.26C310.654 46.6967 309.939 45.96 309.333 45.05C308.769 44.0967 308.488 42.9267 308.488 41.54C308.488 39.07 309.376 37.2283 311.153 36.015C312.973 34.8017 315.161 34.195 317.718 34.195C319.408 34.195 321.141 34.52 322.918 35.17C323.308 35.3433 323.503 35.5817 323.503 35.885C323.503 36.8817 323.481 37.6617 323.438 38.225L323.373 41.345C323.373 41.475 323.243 41.54 322.983 41.54C322.723 41.54 322.593 41.475 322.593 41.345C322.593 40.4783 322.246 39.59 321.553 38.68C320.859 37.7267 319.971 36.9467 318.888 36.34C317.804 35.7333 316.699 35.43 315.573 35.43C313.579 35.43 312.583 36.3833 312.583 38.29ZM348.002 55.84C348.132 55.84 348.24 55.9267 348.327 56.1C348.457 56.2733 348.457 56.4033 348.327 56.49C346.724 58.0067 345.207 59.1117 343.777 59.805C342.347 60.455 340.83 60.78 339.227 60.78C337.364 60.78 335.782 60.3467 334.482 59.48C333.225 58.57 332.597 57.075 332.597 54.995V40.305C332.597 38.875 332.359 37.9217 331.882 37.445C331.449 36.9683 330.582 36.73 329.282 36.73C329.239 36.73 329.174 36.6867 329.087 36.6C329.044 36.47 329.022 36.34 329.022 36.21C329.022 36.08 329.044 35.9717 329.087 35.885C329.174 35.755 329.239 35.69 329.282 35.69C333.355 35.5167 335.912 33.7617 336.952 30.425C337.039 30.2517 337.212 30.165 337.472 30.165C337.775 30.165 337.927 30.2517 337.927 30.425V35.56C339.964 35.5167 342.845 35.3 346.572 34.91C346.659 34.91 346.745 35.0833 346.832 35.43C346.962 35.7333 347.027 36.08 347.027 36.47C347.027 36.86 346.94 37.25 346.767 37.64C346.637 38.03 346.485 38.2033 346.312 38.16C343.885 37.5967 341.09 37.25 337.927 37.12V52.85C337.927 54.54 338.339 55.7967 339.162 56.62C340.029 57.4 341.22 57.79 342.737 57.79C344.557 57.79 346.269 57.1617 347.872 55.905L348.002 55.84ZM373.737 55.905C373.823 55.905 373.91 55.9917 373.997 56.165C374.127 56.3383 374.148 56.4683 374.062 56.555C372.458 58.0283 370.855 59.1117 369.252 59.805C367.648 60.455 365.915 60.78 364.052 60.78C361.408 60.78 359.112 60.195 357.162 59.025C355.255 57.855 353.782 56.3167 352.742 54.41C351.745 52.5033 351.247 50.445 351.247 48.235C351.247 45.6783 351.875 43.3383 353.132 41.215C354.388 39.0917 356.1 37.4233 358.267 36.21C360.477 34.9533 362.925 34.325 365.612 34.325C368.212 34.325 370.227 34.9533 371.657 36.21C373.087 37.4667 373.802 39.33 373.802 41.8C373.802 43.0567 373.542 43.685 373.022 43.685L357.162 43.75C357.118 44.14 357.097 44.725 357.097 45.505C357.097 49.3183 357.963 52.3517 359.697 54.605C361.473 56.815 363.987 57.92 367.237 57.92C368.45 57.92 369.468 57.79 370.292 57.53C371.115 57.2267 372.22 56.7067 373.607 55.97L373.737 55.905ZM363.272 35.625C361.668 35.625 360.347 36.2533 359.307 37.51C358.31 38.7233 357.638 40.4133 357.292 42.58L367.692 42.385C367.605 37.8783 366.132 35.625 363.272 35.625ZM394.994 34.26C395.991 34.26 396.944 34.585 397.854 35.235C398.764 35.885 399.219 36.665 399.219 37.575C399.219 38.3983 398.959 39.07 398.439 39.59C397.962 40.11 397.291 40.37 396.424 40.37C395.861 40.37 395.384 40.2617 394.994 40.045C394.647 39.785 394.279 39.4383 393.889 39.005C393.499 38.615 393.152 38.3333 392.849 38.16C392.546 37.9433 392.177 37.835 391.744 37.835C391.267 37.835 390.747 38.03 390.184 38.42C389.664 38.7667 388.841 39.525 387.714 40.695V54.735C387.714 55.9483 387.887 56.88 388.234 57.53C388.581 58.1367 389.166 58.57 389.989 58.83C390.812 59.09 392.026 59.22 393.629 59.22C393.802 59.22 393.889 59.35 393.889 59.61C393.889 59.87 393.802 60 393.629 60C392.199 60 391.051 59.9783 390.184 59.935L385.049 59.87L381.279 59.935C380.672 59.9783 379.827 60 378.744 60C378.614 60 378.549 59.87 378.549 59.61C378.549 59.35 378.614 59.22 378.744 59.22C380.217 59.22 381.192 58.9167 381.669 58.31C382.146 57.7033 382.384 56.5117 382.384 54.735V42.32C382.384 40.9333 382.211 39.915 381.864 39.265C381.561 38.615 381.041 38.29 380.304 38.29C379.654 38.29 378.571 38.615 377.054 39.265H376.989C376.816 39.265 376.686 39.1567 376.599 38.94C376.512 38.7233 376.534 38.5933 376.664 38.55L385.179 34.39C385.439 34.3033 385.591 34.26 385.634 34.26C386.067 34.26 386.501 34.7367 386.934 35.69C387.367 36.6 387.627 37.8133 387.714 39.33C389.404 37.4233 390.812 36.1017 391.939 35.365C393.066 34.6283 394.084 34.26 394.994 34.26Z" fill="white"/>
<defs>
<radialGradient id="paint0_angular_2_815" cx="0" cy="0" r="1" gradientUnits="userSpaceOnUse" gradientTransform="translate(30.22 19.5796) rotate(90) scale(3.7437 28.22)">
<stop stop-color="#DBBC80"/>
<stop offset="1" stop-color="#AB8219"/>
</radialGradient>
<radialGradient id="paint1_angular_2_815" cx="0" cy="0" r="1" gradientUnits="userSpaceOnUse" gradientTransform="translate(30.7464 64.818) rotate(90) scale(3.62271 26.7464)">
<stop stop-color="#DBBC80"/>
<stop offset="1" stop-color="#AB8219"/>
</radialGradient>
<radialGradient id="paint2_angular_2_815" cx="0" cy="0" r="1" gradientUnits="userSpaceOnUse" gradientTransform="translate(16.7891 41.8636) rotate(90) scale(15.3636 1.78911)">
<stop stop-color="#DBBC80"/>
<stop offset="1" stop-color="#AB8219"/>
</radialGradient>
<radialGradient id="paint3_angular_2_815" cx="0" cy="0" r="1" gradientUnits="userSpaceOnUse" gradientTransform="translate(23.4434 41.8636) rotate(90) scale(15.3636 1.78911)">
<stop stop-color="#DBBC80"/>
<stop offset="1" stop-color="#AB8219"/>
</radialGradient>
<radialGradient id="paint4_angular_2_815" cx="0" cy="0" r="1" gradientUnits="userSpaceOnUse" gradientTransform="translate(30.2208 41.8636) rotate(90) scale(15.3636 1.78911)">
<stop stop-color="#DBBC80"/>
<stop offset="1" stop-color="#AB8219"/>
</radialGradient>
<radialGradient id="paint5_angular_2_815" cx="0" cy="0" r="1" gradientUnits="userSpaceOnUse" gradientTransform="translate(36.8106 41.8636) rotate(90) scale(15.3636 1.78911)">
<stop stop-color="#DBBC80"/>
<stop offset="1" stop-color="#AB8219"/>
</radialGradient>
<radialGradient id="paint6_angular_2_815" cx="0" cy="0" r="1" gradientUnits="userSpaceOnUse" gradientTransform="translate(43.5606 41.8636) rotate(90) scale(15.3636 1.78911)">
<stop stop-color="#DBBC80"/>
<stop offset="1" stop-color="#AB8219"/>
</radialGradient>
<radialGradient id="paint7_angular_2_815" cx="0" cy="0" r="1" gradientUnits="userSpaceOnUse" gradientTransform="translate(16.7891 75.7959) rotate(90) scale(2.70411 1.78911)">
<stop stop-color="#DBBC80"/>
<stop offset="1" stop-color="#AB8219"/>
</radialGradient>
<radialGradient id="paint8_angular_2_815" cx="0" cy="0" r="1" gradientUnits="userSpaceOnUse" gradientTransform="translate(23.4434 75.7959) rotate(90) scale(2.70411 1.78911)">
<stop stop-color="#DBBC80"/>
<stop offset="1" stop-color="#AB8219"/>
</radialGradient>
<radialGradient id="paint9_angular_2_815" cx="0" cy="0" r="1" gradientUnits="userSpaceOnUse" gradientTransform="translate(30.2208 75.7959) rotate(90) scale(2.70411 1.78911)">
<stop stop-color="#DBBC80"/>
<stop offset="1" stop-color="#AB8219"/>
</radialGradient>
<radialGradient id="paint10_angular_2_815" cx="0" cy="0" r="1" gradientUnits="userSpaceOnUse" gradientTransform="translate(36.8125 75.7959) rotate(90) scale(2.70411 1.78911)">
<stop stop-color="#DBBC80"/>
<stop offset="1" stop-color="#AB8219"/>
</radialGradient>
<radialGradient id="paint11_angular_2_815" cx="0" cy="0" r="1" gradientUnits="userSpaceOnUse" gradientTransform="translate(43.5606 75.7959) rotate(90) scale(2.70411 1.78911)">
<stop stop-color="#DBBC80"/>
<stop offset="1" stop-color="#AB8219"/>
</radialGradient>
<radialGradient id="paint12_angular_2_815" cx="0" cy="0" r="1" gradientUnits="userSpaceOnUse" gradientTransform="translate(23.4415 3.20411) rotate(90) scale(2.70411 1.78911)">
<stop stop-color="#DBBC80"/>
<stop offset="1" stop-color="#AB8219"/>
</radialGradient>
<radialGradient id="paint13_angular_2_815" cx="0" cy="0" r="1" gradientUnits="userSpaceOnUse" gradientTransform="translate(30.2227 3.20411) rotate(90) scale(2.70411 1.78911)">
<stop stop-color="#DBBC80"/>
<stop offset="1" stop-color="#AB8219"/>
</radialGradient>
<radialGradient id="paint14_angular_2_815" cx="0" cy="0" r="1" gradientUnits="userSpaceOnUse" gradientTransform="translate(36.8126 3.20411) rotate(90) scale(2.70411 1.78911)">
<stop stop-color="#DBBC80"/>
<stop offset="1" stop-color="#AB8219"/>
</radialGradient>
<radialGradient id="paint15_angular_2_815" cx="0" cy="0" r="1" gradientUnits="userSpaceOnUse" gradientTransform="translate(30.7431 22.2847) rotate(-180) scale(17.7432 1.78468)">
<stop stop-color="#DBBC80"/>
<stop offset="1" stop-color="#AB8219"/>
</radialGradient>
<radialGradient id="paint16_angular_2_815" cx="0" cy="0" r="1" gradientUnits="userSpaceOnUse" gradientTransform="translate(30.2568 62.0855) rotate(-180) scale(17.7432 1.78469)">
<stop stop-color="#DBBC80"/>
<stop offset="1" stop-color="#AB8219"/>
</radialGradient>
<radialGradient id="paint17_angular_2_815" cx="0" cy="0" r="1" gradientUnits="userSpaceOnUse" gradientTransform="translate(30.2568 9.55909) rotate(-180) scale(17.7432 1.78468)">
<stop stop-color="#DBBC80"/>
<stop offset="1" stop-color="#AB8219"/>
</radialGradient>
</defs>
</svg>
